<svg xmlns="http://www.w3.org/2000/svg" width="1000" height="400" viewBox="0 0 1828.823 943">
  <g id="Group_36" data-name="Group 36" transform="translate(-222.587 -54.5)" opacity="0.05">
    <g id="pattern_2_" data-name="pattern (2)" transform="translate(222.587 56)">
      <path id="Path_32" data-name="Path 32" d="M0,940c218.628,0,311.714-122.592,426.133-252.286C543.242,555.07,672.309,417.778,914.411,417.778s371.169,137.292,488.278,269.937C1517.108,817.408,1610.194,940,1828.822,940M0,731.163c218.628-.052,311.714-122.618,426.133-252.312C543.242,346.181,672.309,208.889,914.411,208.889s371.169,137.292,488.278,269.963c114.419,129.694,207.505,252.259,426.133,252.338m-.522-208.863c-218.628-.026-311.192-122.67-425.611-252.364C1285.581,137.292,1156.513,0,914.411,0S543.242,137.292,426.133,269.963C311.714,399.657,218.628,522.222,0,522.274" fill="none" stroke="#c9fff6" stroke-width="3"/>
    </g>
  </g>
</svg>
