<svg xmlns="http://www.w3.org/2000/svg" width="57.406" height="32.506" viewBox="0 0 57.406 32.506">
  <g id="Group_34" data-name="Group 34" transform="translate(-222.587 -54.5)">
    <g id="pattern_2_" data-name="pattern (2)" transform="translate(222.587 56)">
      <path id="Path_32" data-name="Path 32" d="M0,29.506c6.863,0,9.784-3.848,13.376-7.919,3.676-4.164,7.727-8.473,15.327-8.473s11.651,4.309,15.327,8.473c3.592,4.071,6.513,7.919,13.376,7.919M0,22.951c6.863,0,9.784-3.849,13.376-7.92C17.052,10.866,21.1,6.557,28.7,6.557s11.651,4.309,15.327,8.474c3.592,4.071,6.513,7.918,13.376,7.921M57.389,16.4c-6.863,0-9.768-3.851-13.36-7.922C40.353,4.309,36.3,0,28.7,0S17.052,4.309,13.376,8.474C9.784,12.545,6.863,16.392,0,16.394" fill="none" stroke="#c9fff6" stroke-width="3"/>
    </g>
  </g>
</svg>
